<svg width="818" height="842" viewBox="0 0 818 842" fill="none" xmlns="http://www.w3.org/2000/svg">
<g clip-path="url(#clip0_2482_21836)">
<path d="M890.166 751.749H817.695V752.296H890.166V751.749Z" fill="#EBEBEB"/>
<path d="M630.489 757.682H611.469V758.229H630.489V757.682Z" fill="#EBEBEB"/>
<path d="M815.5 731.45H773.508V731.997H815.5V731.45Z" fill="#EBEBEB"/>
<path d="M115.069 735.123H20.5625V735.669H115.069V735.123Z" fill="#EBEBEB"/>
<path d="M148.403 735.123H134.547V735.669H148.403V735.123Z" fill="#EBEBEB"/>
<path d="M398.401 744.354H193.438V744.901H398.401V744.354Z" fill="#EBEBEB"/>
<path d="M427.404 619.072H4.90316C-1.98248 619.072 -7.58594 613.474 -7.58594 606.595V13.2443C-7.58594 6.36495 -1.98248 0.766602 4.90316 0.766602H427.404C434.287 0.766602 439.891 6.36495 439.891 13.2443V606.595C439.891 613.474 434.287 619.072 427.404 619.072ZM4.90316 1.31529C-1.68272 1.31529 -7.03894 6.66662 -7.03894 13.2465V606.597C-7.03894 613.177 -1.68272 618.528 4.90316 618.528H427.404C433.987 618.528 439.344 613.177 439.344 606.597V13.2443C439.344 6.66662 433.987 1.3131 427.404 1.3131L4.90316 1.31529Z" fill="#EBEBEB"/>
<path d="M900.659 619.072H478.159C471.275 619.072 465.672 613.474 465.672 606.595V13.2443C465.672 6.36495 471.275 0.766602 478.159 0.766602H900.659C907.547 0.766602 913.149 6.36495 913.149 13.2443V606.595C913.149 613.474 907.545 619.072 900.659 619.072ZM478.159 1.31529C471.575 1.31529 466.219 6.66662 466.219 13.2465V606.597C466.219 613.177 471.575 618.528 478.159 618.528H900.659C907.245 618.528 912.602 613.177 912.602 606.597V13.2443C912.602 6.66662 907.245 1.3131 900.659 1.3131L478.159 1.31529Z" fill="#EBEBEB"/>
<path d="M999.781 716.563H-94.2188V717.11H999.781V716.563Z" fill="#EBEBEB"/>
<path d="M793.78 313.386L776.422 124.649L523.793 147.841L541.151 336.578L793.78 313.386Z" fill="#E6E6E6"/>
<path opacity="0.9" d="M763.136 140.615L539.773 161.12L554.443 320.62L777.806 300.115L763.136 140.615Z" fill="#FAFAFA"/>
<path d="M660.416 170.138L661.744 184.587L574.977 192.553L579.359 240.212L583.969 290.333L626.298 286.446L694.253 280.207L697.389 279.919L744.422 275.601L743.678 267.509L731.246 268.65C731.434 262.909 735.528 257.871 741.293 256.583L742.645 256.279L739.812 225.481L731.43 226.25L725.717 164.142L660.416 170.138ZM586.818 286.914L582.786 243.058L592.494 242.167C594.736 249.256 601.664 253.962 609.153 253.274L610.72 253.129L609.567 240.599L618.844 239.747L622.876 283.602L586.818 286.914ZM626.012 283.316L621.69 236.328L606.145 237.755L607.289 250.187C601.539 249.999 596.496 245.905 595.207 240.136L594.905 238.785L582.497 239.924L578.401 195.395L662.033 187.718L666.415 235.377L673.552 234.721L684.794 233.689L689.932 233.217L693.967 277.073L626.012 283.316ZM673.264 231.593L672.393 222.119C677.62 222.285 682.213 225.675 683.989 230.609L673.264 231.593ZM736.965 228.904L739.263 253.879C732.176 256.122 727.469 263.038 728.156 270.517L728.301 272.084L740.831 270.934L741 272.762L697.104 276.793L693.069 232.937L731.721 229.389L736.965 228.904ZM722.87 167.563L728.294 226.539L692.778 229.8L689.643 230.089L687.236 230.31C685.053 223.113 678.108 218.337 670.526 219.032L668.96 219.176L670.128 231.881L669.262 231.96L664.879 184.301L663.838 172.984L722.87 167.563Z" fill="#E0E0E0"/>
<path d="M306.47 328.031L344.227 138.396L90.3967 87.9505L52.6401 277.586L306.47 328.031Z" fill="#E6E6E6"/>
<path opacity="0.9" d="M102.189 105.557L70.2812 265.817L294.707 310.418L326.615 150.159L102.189 105.557Z" fill="#FAFAFA"/>
<path d="M217.565 149.301L214.675 163.818L127.496 146.494L117.963 194.381L107.938 244.74L150.466 253.191L218.742 266.759L221.893 267.384L269.147 276.775L270.766 268.643L258.275 266.162C260.124 260.601 265.589 256.859 271.602 257.268L273.011 257.361L279.173 226.417L270.751 224.742L283.174 162.338L217.565 149.301ZM111.714 242.217L120.488 198.154L130.242 200.093C130.38 207.676 135.789 214.284 143.315 215.779L144.891 216.092L147.398 203.503L156.719 205.354L147.945 249.418L111.714 242.217ZM151.091 250.043L160.491 202.832L144.871 199.728L142.383 212.218C136.813 210.369 133.067 204.906 133.48 198.89L133.576 197.483L121.111 195.006L130.019 150.267L214.047 166.966L204.514 214.853L211.684 216.278L222.978 218.523L228.14 219.548L219.366 263.611L151.091 250.043ZM212.312 213.13L214.206 203.61C219.272 205.287 222.779 209.93 223.088 215.272L212.312 213.13ZM275.396 228.939L270.401 254.032C262.819 254.174 256.21 259.578 254.713 267.091L254.4 268.665L266.99 271.168L266.624 273.005L222.521 264.239L231.295 220.175L270.127 227.892L275.396 228.939ZM279.4 164.861L267.602 224.117L231.918 217.025L228.768 216.4L226.35 215.919C226.302 208.249 220.895 201.566 213.277 200.053L211.701 199.741L209.161 212.505L208.292 212.332L217.825 164.446L220.09 153.076L279.4 164.861Z" fill="#E0E0E0"/>
<path d="M560.254 114.618H538.861C526.44 114.618 516.336 104.523 516.336 92.113V70.7405C516.336 58.3305 526.44 48.2356 538.861 48.2356H560.254C572.675 48.2356 582.779 58.3305 582.779 70.7405V92.113C582.779 104.523 572.675 114.618 560.254 114.618ZM538.861 54.7936C530.061 54.7936 522.9 61.9462 522.9 70.7405V92.113C522.9 100.905 530.061 108.06 538.861 108.06H560.254C569.054 108.06 576.215 100.907 576.215 92.113V70.7405C576.215 61.9484 569.056 54.7936 560.254 54.7936H538.861Z" fill="#F0F0F0"/>
<path d="M540.655 95.3066L509.461 64.143L518.742 54.8678L540.655 76.7584L580.365 37.0847L589.647 46.3599L540.655 95.3066Z" fill="#E0E0E0"/>
<path d="M100.862 400.846H84.3752C74.8027 400.846 67.0156 393.066 67.0156 383.503V367.031C67.0156 357.467 74.8027 349.687 84.3752 349.687H100.862C110.434 349.687 118.221 357.467 118.221 367.031V383.503C118.219 393.068 110.434 400.846 100.862 400.846ZM84.3752 354.746C77.5924 354.746 72.0743 360.259 72.0743 367.035V383.507C72.0743 390.283 77.5924 395.797 84.3752 395.797H100.862C107.645 395.797 113.163 390.283 113.163 383.507V367.035C113.163 360.259 107.645 354.746 100.862 354.746H84.3752Z" fill="#F0F0F0"/>
<path d="M85.7583 385.966L61.7188 361.951L68.8735 354.802L85.7583 371.672L116.36 341.098L123.512 348.247L85.7583 385.966Z" fill="#E0E0E0"/>
<path d="M848.799 534.983H832.313C822.74 534.983 814.953 527.203 814.953 517.64V501.168C814.953 491.604 822.74 483.824 832.313 483.824H848.799C858.372 483.824 866.159 491.604 866.159 501.168V517.64C866.159 527.203 858.372 534.983 848.799 534.983ZM832.313 488.881C825.53 488.881 820.012 494.394 820.012 501.17V517.642C820.012 524.418 825.53 529.932 832.313 529.932H848.799C855.582 529.932 861.1 524.418 861.1 517.642V501.17C861.1 494.394 855.582 488.881 848.799 488.881H832.313Z" fill="#F0F0F0"/>
<path d="M833.701 520.101L809.664 496.086L816.817 488.937L833.701 505.807L864.303 475.233L871.458 482.382L833.701 520.101Z" fill="#E0E0E0"/>
<path d="M452.784 806.88C687.079 806.88 877.013 795.798 877.013 782.128C877.013 768.458 687.079 757.376 452.784 757.376C218.489 757.376 28.5547 768.458 28.5547 782.128C28.5547 795.798 218.489 806.88 452.784 806.88Z" fill="#F5F5F5"/>
<path d="M134.617 401.572H152.007V408.434H149.167V439.223H137.455V408.434H134.617V401.572Z" fill="#24BBE3"/>
<g opacity="0.2">
<path d="M134.617 401.572H152.007V408.434H149.167V439.223H137.455V408.434H134.617V401.572Z" fill="black"/>
</g>
<path d="M237.464 379.622L299.221 474.553V559.753H152.992V474.553L237.464 379.622Z" fill="#24BBE3"/>
<path opacity="0.5" d="M237.464 379.622L299.221 474.553V559.753H152.992V474.553L237.464 379.622Z" fill="white"/>
<path d="M169.633 383.483L179.03 369.079H237.463L306.289 474.554H247.858H169.633V383.483Z" fill="#24BBE3"/>
<path opacity="0.2" d="M169.633 383.483L179.03 369.079H237.463L306.289 474.554H247.858H169.633V383.483Z" fill="black"/>
<path d="M247.857 474.554L179.029 369.081L110.203 474.554H247.857Z" fill="#24BBE3"/>
<path d="M179.03 379.622L240.788 474.553V559.753H117.273V474.553L179.03 379.622Z" fill="#24BBE3"/>
<path opacity="0.8" d="M179.03 379.622L240.788 474.553V559.753H117.273V474.553L179.03 379.622Z" fill="white"/>
<path d="M206.728 434.263H194.234V467.34H206.728V434.263Z" fill="#24BBE3"/>
<path d="M163.001 434.263H150.508V467.34H163.001V434.263Z" fill="#24BBE3"/>
<path d="M194.234 432.703H163V468.901H194.234V432.703Z" fill="#24BBE3"/>
<path opacity="0.4" d="M194.234 432.703H163V468.901H194.234V432.703Z" fill="white"/>
<path d="M190.331 436.603H166.906V464.999H190.331V436.603Z" fill="#263238"/>
<path d="M159.731 559.752H197.5V498.853H159.731V559.752Z" fill="#24BBE3"/>
<path opacity="0.3" d="M159.731 559.752H197.5V498.853H159.731V559.752Z" fill="white"/>
<path d="M162.072 486.096H195.161L203.204 501.006H154.031L162.072 486.096Z" fill="#24BBE3"/>
<path d="M190.91 509.199H179.344V559.753H190.91V509.199Z" fill="#263238"/>
<path d="M177.894 509.199H166.328V559.753H177.894V509.199Z" fill="#263238"/>
<path d="M275.668 621.271H99.7266V770.243H275.668V621.271Z" fill="#24BBE3"/>
<path opacity="0.6" d="M275.668 621.271H99.7266V770.243H275.668V621.271Z" fill="white"/>
<path d="M316.761 621.271H229.867V770.243H316.761V621.271Z" fill="#24BBE3"/>
<path opacity="0.8" d="M316.761 621.271H229.867V770.243H316.761V621.271Z" fill="white"/>
<path d="M213.496 636.259H178.891V676.365H213.496V636.259Z" fill="#24BBE3"/>
<path opacity="0.3" d="M213.496 636.259H178.891V676.365H213.496V636.259Z" fill="white"/>
<path d="M209.173 640.58H183.219V672.043H209.173V640.58Z" fill="#263238"/>
<path d="M255.615 637.988H241.773V674.636H255.615V637.988Z" fill="#24BBE3"/>
<path d="M304.06 637.988H290.219V674.636H304.06V637.988Z" fill="#24BBE3"/>
<path d="M290.223 636.259H255.617V676.365H290.223V636.259Z" fill="#24BBE3"/>
<path opacity="0.3" d="M290.223 636.259H255.617V676.365H290.223V636.259Z" fill="white"/>
<path d="M285.892 640.58H259.938V672.043H285.892V640.58Z" fill="#263238"/>
<path d="M181.493 703.983H140.398V770.243H181.493V703.983Z" fill="#24BBE3"/>
<path opacity="0.3" d="M181.493 703.983H140.398V770.243H181.493V703.983Z" fill="white"/>
<path d="M178.949 690.1H142.947L134.195 706.324H187.698L178.949 690.1Z" fill="#24BBE3"/>
<path d="M160.161 715.239H147.578V770.243H160.161V715.239Z" fill="#263238"/>
<path d="M174.318 715.239H161.734V770.243H174.318V715.239Z" fill="#263238"/>
<path d="M295.26 622.541L260.885 558.804H114.516L80.1406 622.541H295.26Z" fill="#24BBE3"/>
<path opacity="0.3" d="M295.26 622.541L260.885 558.804H114.516L80.1406 622.541H295.26Z" fill="black"/>
<path d="M336.352 622.541L301.976 558.804H244.655L210.281 622.541H336.352Z" fill="#24BBE3"/>
<path opacity="0.1" d="M336.352 622.541L301.976 558.804H244.655L210.281 622.541H336.352Z" fill="black"/>
<path d="M147.305 611.646V558.804H214.973L186.474 611.646H147.305Z" fill="#24BBE3"/>
<path opacity="0.8" d="M147.305 611.646V558.804H214.973L186.474 611.646H147.305Z" fill="white"/>
<path d="M145.319 611.647H186.414V570.59H145.319V611.647Z" fill="#24BBE3"/>
<path opacity="0.6" d="M145.319 611.647H186.414V570.59H145.319V611.647Z" fill="white"/>
<path d="M157.207 606.678H174.532C176.101 606.678 177.372 605.408 177.372 603.84V601.768H154.367V603.84C154.367 605.408 155.641 606.678 157.207 606.678Z" fill="#24BBE3"/>
<path d="M158.594 584.918C158.594 580.905 161.852 577.65 165.869 577.65C169.886 577.65 173.144 580.905 173.144 584.918V600.603H158.594V584.918Z" fill="#263238"/>
<path d="M173.148 572.932L180.767 558.804H214.976L207.356 572.932H173.148Z" fill="#24BBE3"/>
<path opacity="0.2" d="M173.148 572.932L180.767 558.804H214.976L207.356 572.932H173.148Z" fill="black"/>
<path d="M185 558.804L192.62 572.932H139.117L146.738 558.804H185Z" fill="#24BBE3"/>
<path d="M151.504 636.259H116.898V676.365H151.504V636.259Z" fill="#24BBE3"/>
<path opacity="0.3" d="M151.504 636.259H116.898V676.365H151.504V636.259Z" fill="white"/>
<path d="M147.173 640.58H121.219V672.043H147.173V640.58Z" fill="#263238"/>
<path d="M323.625 768.761H645.602C651.573 768.761 655.991 763.926 655.468 757.96L615.073 296.675C614.55 290.709 609.286 285.874 603.315 285.874H281.337C275.366 285.874 270.949 290.709 271.472 296.675L311.867 757.96C312.389 763.924 317.652 768.761 323.625 768.761Z" fill="#263238"/>
<path d="M328.266 768.761H650.243C656.214 768.761 660.631 763.926 660.109 757.96L619.714 296.675C619.191 290.709 613.926 285.874 607.955 285.874H285.978C280.007 285.874 275.589 290.709 276.112 296.675L316.507 757.96C317.028 763.924 322.294 768.761 328.266 768.761Z" fill="#263238"/>
<path opacity="0.5" d="M328.266 768.761H650.243C656.214 768.761 660.631 763.926 660.109 757.96L619.714 296.675C619.191 290.709 613.926 285.874 607.955 285.874H285.978C280.007 285.874 275.589 290.709 276.112 296.675L316.507 757.96C317.028 763.924 322.294 768.761 328.266 768.761Z" fill="white"/>
<path opacity="0.2" d="M589.767 312.543L628.38 752.023H338.171L299.555 312.543H589.767Z" fill="black"/>
<path d="M591.548 312.543L602.678 454.279C605.564 491.015 609.918 527.623 615.73 564.012L644.176 742.09H353.966L325.47 563.568C319.669 527.223 315.322 490.66 312.44 453.968L301.336 312.543H591.548Z" fill="white"/>
<path d="M398.937 368.883H507.755C511.361 368.883 513.925 365.962 513.483 362.36L512.619 355.303C512.177 351.701 508.897 348.782 505.291 348.782H396.473C392.867 348.782 390.303 351.703 390.745 355.303L391.609 362.36C392.051 365.962 395.331 368.883 398.937 368.883Z" fill="#24BBE3"/>
<path d="M352.976 514.997H586.589C590.194 514.997 592.759 512.077 592.317 508.476L591.452 501.42C591.01 497.817 587.731 494.899 584.125 494.899H350.512C346.906 494.899 344.342 497.819 344.784 501.42L345.648 508.476C346.09 512.077 349.37 514.997 352.976 514.997Z" fill="#24BBE3"/>
<path opacity="0.5" d="M352.976 514.997H586.589C590.194 514.997 592.759 512.077 592.317 508.476L591.452 501.42C591.01 497.817 587.731 494.899 584.125 494.899H350.512C346.906 494.899 344.342 497.819 344.784 501.42L345.648 508.476C346.09 512.077 349.37 514.997 352.976 514.997Z" fill="white"/>
<path d="M496.965 398.971C460.692 398.971 424.419 398.971 388.147 398.971C385.906 398.971 385.598 395.493 387.842 395.493C424.115 395.493 460.388 395.493 496.66 395.493C498.901 395.493 499.209 398.971 496.965 398.971Z" fill="#263238"/>
<path d="M341.771 408.635C393.938 408.635 446.104 408.635 498.268 408.635C500.508 408.635 500.817 412.115 498.572 412.115C446.406 412.115 394.24 412.115 342.075 412.115C339.835 412.115 339.529 408.635 341.771 408.635Z" fill="#263238"/>
<path d="M520.952 412.695H574.057C577.663 412.695 580.227 409.774 579.785 406.171L578.921 399.115C578.479 395.513 575.199 392.594 571.594 392.594H518.489C514.883 392.594 512.319 395.515 512.76 399.115L513.625 406.171C514.067 409.774 517.347 412.695 520.952 412.695Z" fill="#263238"/>
<path opacity="0.7" d="M520.952 412.695H574.057C577.663 412.695 580.227 409.774 579.785 406.171L578.921 399.115C578.479 395.513 575.199 392.594 571.594 392.594H518.489C514.883 392.594 512.319 395.515 512.76 399.115L513.625 406.171C514.067 409.774 517.347 412.695 520.952 412.695Z" fill="white"/>
<path d="M550.893 453.149H579.019C582.625 453.149 585.189 450.228 584.747 446.628L584.295 442.927C583.853 439.324 580.573 436.406 576.967 436.406H548.84C545.234 436.406 542.67 439.327 543.112 442.927L543.565 446.628C544.007 450.228 547.287 453.149 550.893 453.149Z" fill="#263238"/>
<path d="M464.908 453.149H530.176C533.782 453.149 536.346 450.228 535.904 446.628L535.451 442.927C535.01 439.324 531.73 436.406 528.124 436.406H462.856C459.25 436.406 456.686 439.327 457.128 442.927L457.581 446.628C458.023 450.228 461.305 453.149 464.908 453.149Z" fill="#263238"/>
<path d="M395.182 453.149H444.202C447.807 453.149 450.372 450.228 449.93 446.628L449.477 442.927C449.035 439.324 445.755 436.406 442.149 436.406H393.129C389.523 436.406 386.959 439.327 387.401 442.927L387.854 446.628C388.298 450.228 391.578 453.149 395.182 453.149Z" fill="#263238"/>
<path d="M348.666 453.149H374.471C378.077 453.149 380.641 450.228 380.199 446.628L379.747 442.927C379.305 439.324 376.025 436.406 372.419 436.406H346.614C343.008 436.406 340.444 439.327 340.885 442.927L341.338 446.628C341.78 450.228 345.062 453.149 348.666 453.149Z" fill="#263238"/>
<path d="M532.994 477.623H582.014C585.62 477.623 588.184 474.703 587.742 471.1L587.289 467.401C586.847 463.799 583.568 460.878 579.962 460.878H530.942C527.336 460.878 524.772 463.799 525.214 467.401L525.667 471.1C526.108 474.703 529.388 477.623 532.994 477.623Z" fill="#263238"/>
<path d="M453.979 477.623H512.282C515.888 477.623 518.452 474.703 518.01 471.1L517.557 467.401C517.115 463.799 513.836 460.878 510.23 460.878H451.926C448.32 460.878 445.756 463.799 446.198 467.401L446.651 471.1C447.093 474.703 450.373 477.623 453.979 477.623Z" fill="#263238"/>
<path d="M405.143 477.623H433.269C436.875 477.623 439.439 474.703 438.997 471.1L438.545 467.401C438.103 463.799 434.823 460.878 431.217 460.878H403.09C399.484 460.878 396.92 463.799 397.362 467.401L397.815 471.1C398.257 474.703 401.537 477.623 405.143 477.623Z" fill="#263238"/>
<path d="M351.666 477.623H384.436C388.041 477.623 390.606 474.703 390.164 471.1L389.711 467.401C389.269 463.799 385.989 460.878 382.383 460.878H349.614C346.008 460.878 343.444 463.799 343.885 467.401L344.338 471.1C344.78 474.703 348.06 477.623 351.666 477.623Z" fill="#263238"/>
<g opacity="0.7">
<path d="M550.893 453.149H579.019C582.625 453.149 585.189 450.228 584.747 446.628L584.295 442.927C583.853 439.324 580.573 436.406 576.967 436.406H548.84C545.234 436.406 542.67 439.327 543.112 442.927L543.565 446.628C544.007 450.228 547.287 453.149 550.893 453.149Z" fill="white"/>
<path d="M464.908 453.149H530.176C533.782 453.149 536.346 450.228 535.904 446.628L535.451 442.927C535.01 439.324 531.73 436.406 528.124 436.406H462.856C459.25 436.406 456.686 439.327 457.128 442.927L457.581 446.628C458.023 450.228 461.305 453.149 464.908 453.149Z" fill="white"/>
<path d="M395.182 453.149H444.202C447.807 453.149 450.372 450.228 449.93 446.628L449.477 442.927C449.035 439.324 445.755 436.406 442.149 436.406H393.129C389.523 436.406 386.959 439.327 387.401 442.927L387.854 446.628C388.298 450.228 391.578 453.149 395.182 453.149Z" fill="white"/>
<path d="M348.666 453.149H374.471C378.077 453.149 380.641 450.228 380.199 446.628L379.747 442.927C379.305 439.324 376.025 436.406 372.419 436.406H346.614C343.008 436.406 340.444 439.327 340.885 442.927L341.338 446.628C341.78 450.228 345.062 453.149 348.666 453.149Z" fill="white"/>
<path d="M532.994 477.623H582.014C585.62 477.623 588.184 474.703 587.742 471.1L587.289 467.401C586.847 463.799 583.568 460.878 579.962 460.878H530.942C527.336 460.878 524.772 463.799 525.214 467.401L525.667 471.1C526.108 474.703 529.388 477.623 532.994 477.623Z" fill="white"/>
<path d="M453.979 477.623H512.282C515.888 477.623 518.452 474.703 518.01 471.1L517.557 467.401C517.115 463.799 513.836 460.878 510.23 460.878H451.926C448.32 460.878 445.756 463.799 446.198 467.401L446.651 471.1C447.093 474.703 450.373 477.623 453.979 477.623Z" fill="white"/>
<path d="M405.143 477.623H433.269C436.875 477.623 439.439 474.703 438.997 471.1L438.545 467.401C438.103 463.799 434.823 460.878 431.217 460.878H403.09C399.484 460.878 396.92 463.799 397.362 467.401L397.815 471.1C398.257 474.703 401.537 477.623 405.143 477.623Z" fill="white"/>
<path d="M351.666 477.623H384.436C388.041 477.623 390.606 474.703 390.164 471.1L389.711 467.401C389.269 463.799 385.989 460.878 382.383 460.878H349.614C346.008 460.878 343.444 463.799 343.885 467.401L344.338 471.1C344.78 474.703 348.06 477.623 351.666 477.623Z" fill="white"/>
</g>
<path d="M444.805 724.287C419.605 724.287 394.408 724.287 369.209 724.287C366.969 724.287 366.66 720.809 368.905 720.809C394.104 720.809 419.301 720.809 444.5 720.809C446.741 720.809 447.049 724.287 444.805 724.287Z" fill="#263238"/>
<path d="M618.703 724.287C593.504 724.287 568.307 724.287 543.108 724.287C540.867 724.287 540.559 720.809 542.803 720.809C568.003 720.809 593.2 720.809 618.399 720.809C620.639 720.809 620.948 724.287 618.703 724.287Z" fill="#263238"/>
<path d="M605.581 617.238C573.417 617.238 541.256 617.238 509.092 617.238C506.851 617.238 506.543 613.76 508.788 613.76C540.951 613.76 573.113 613.76 605.276 613.76C607.517 613.758 607.825 617.238 605.581 617.238Z" fill="#263238"/>
<path d="M510.428 627.141C542.591 627.141 574.753 627.141 606.916 627.141C609.157 627.141 609.465 630.619 607.22 630.619C575.057 630.619 542.895 630.619 510.732 630.619C508.491 630.619 508.185 627.141 510.428 627.141Z" fill="#263238"/>
<path d="M512.069 640.521C544.233 640.521 576.394 640.521 608.558 640.521C610.798 640.521 611.107 643.999 608.862 643.999C576.698 643.999 544.537 643.999 512.373 643.999C510.133 643.999 509.824 640.521 512.069 640.521Z" fill="#263238"/>
<path d="M513.71 653.902C545.873 653.902 578.035 653.902 610.198 653.902C612.439 653.902 612.747 657.382 610.502 657.382C578.339 657.382 546.177 657.382 514.014 657.382C511.773 657.382 511.465 653.902 513.71 653.902Z" fill="#263238"/>
<path d="M515.35 667.282C547.514 667.282 579.675 667.282 611.839 667.282C614.079 667.282 614.388 670.763 612.143 670.763C579.979 670.763 547.818 670.763 515.654 670.763C513.414 670.763 513.105 667.282 515.35 667.282Z" fill="#263238"/>
<path d="M461.312 617.238C436.113 617.238 410.916 617.238 385.717 617.238C383.476 617.238 383.168 613.76 385.413 613.76C410.612 613.76 435.809 613.76 461.008 613.76C463.249 613.758 463.557 617.238 461.312 617.238Z" fill="#263238"/>
<path d="M387.053 627.141C412.252 627.141 437.449 627.141 462.648 627.141C464.889 627.141 465.197 630.619 462.952 630.619C437.753 630.619 412.556 630.619 387.357 630.619C385.118 630.619 384.808 627.141 387.053 627.141Z" fill="#263238"/>
<path d="M388.694 640.521C413.893 640.521 439.09 640.521 464.289 640.521C466.53 640.521 466.838 643.999 464.594 643.999C439.394 643.999 414.197 643.999 388.998 643.999C386.758 643.999 386.449 640.521 388.694 640.521Z" fill="#263238"/>
<path d="M390.335 653.902C415.534 653.902 440.731 653.902 465.93 653.902C468.171 653.902 468.479 657.382 466.234 657.382C441.035 657.382 415.838 657.382 390.639 657.382C388.398 657.382 388.09 653.902 390.335 653.902Z" fill="#263238"/>
<path d="M391.967 667.282C417.167 667.282 442.364 667.282 467.563 667.282C469.803 667.282 470.112 670.763 467.867 670.763C442.668 670.763 417.471 670.763 392.272 670.763C390.031 670.763 389.723 667.282 391.967 667.282Z" fill="#263238"/>
<path d="M349.668 548.336L351.657 564.571L353.645 580.807L355.634 597.042H401.053H402.795H478.97H480.711H556.887H558.628H604.047L601.846 579.067L599.857 562.831L597.868 546.596L595.879 530.36H550.463H548.721H472.544H470.802H394.627H392.885H347.469L349.668 548.336ZM393.986 539.349L394.874 546.596H351.199L349.423 532.1H393.097L393.986 539.349ZM397.716 555.585L396.828 548.338H473.001L473.889 555.585L474.778 562.833H398.602L397.716 555.585ZM474.745 548.336H550.92L551.808 555.582L552.697 562.831H476.524L475.635 555.582L474.745 548.336ZM554.685 579.067H478.51L477.622 571.82L476.734 564.571H552.907L553.795 571.82L554.685 579.067ZM476.766 579.067H400.593L399.705 571.82L398.817 564.571H474.992L475.88 571.82L476.766 579.067ZM471.903 539.349L472.791 546.596H396.618L395.729 539.349L394.841 532.103H471.016L471.903 539.349ZM549.819 539.349L550.708 546.596H474.532L473.644 539.349L472.756 532.103H548.929L549.819 539.349ZM596.124 546.598H552.449L551.561 539.351L550.673 532.105H594.347L596.124 546.598ZM598.115 562.833H554.438L553.55 555.585L552.662 548.338H596.336L598.115 562.833ZM600.102 579.067H556.427L555.539 571.82L554.65 564.571H598.325L600.102 579.067ZM557.528 588.055L556.639 580.807H600.314L602.091 595.302H558.414L557.528 588.055ZM479.611 588.055L478.723 580.807H554.898L555.786 588.055L556.674 595.302H480.501L479.611 588.055ZM401.694 588.055L400.806 580.807H476.979L477.867 588.055L478.755 595.302H402.582L401.694 588.055ZM355.389 580.807H399.064L399.952 588.055L400.841 595.302H357.166L355.389 580.807ZM353.398 564.571H397.073L397.961 571.82L398.85 579.067H355.175L353.398 564.571ZM351.412 548.336H395.086L395.975 555.582L396.863 562.831H353.188L351.412 548.336Z" fill="#24BBE3"/>
<path opacity="0.5" d="M349.668 548.336L351.657 564.571L353.645 580.807L355.634 597.042H401.053H402.795H478.97H480.711H556.887H558.628H604.047L601.846 579.067L599.857 562.831L597.868 546.596L595.879 530.36H550.463H548.721H472.544H470.802H394.627H392.885H347.469L349.668 548.336ZM393.986 539.349L394.874 546.596H351.199L349.423 532.1H393.097L393.986 539.349ZM397.716 555.585L396.828 548.338H473.001L473.889 555.585L474.778 562.833H398.602L397.716 555.585ZM474.745 548.336H550.92L551.808 555.582L552.697 562.831H476.524L475.635 555.582L474.745 548.336ZM554.685 579.067H478.51L477.622 571.82L476.734 564.571H552.907L553.795 571.82L554.685 579.067ZM476.766 579.067H400.593L399.705 571.82L398.817 564.571H474.992L475.88 571.82L476.766 579.067ZM471.903 539.349L472.791 546.596H396.618L395.729 539.349L394.841 532.103H471.016L471.903 539.349ZM549.819 539.349L550.708 546.596H474.532L473.644 539.349L472.756 532.103H548.929L549.819 539.349ZM596.124 546.598H552.449L551.561 539.351L550.673 532.105H594.347L596.124 546.598ZM598.115 562.833H554.438L553.55 555.585L552.662 548.338H596.336L598.115 562.833ZM600.102 579.067H556.427L555.539 571.82L554.65 564.571H598.325L600.102 579.067ZM557.528 588.055L556.639 580.807H600.314L602.091 595.302H558.414L557.528 588.055ZM479.611 588.055L478.723 580.807H554.898L555.786 588.055L556.674 595.302H480.501L479.611 588.055ZM401.694 588.055L400.806 580.807H476.979L477.867 588.055L478.755 595.302H402.582L401.694 588.055ZM355.389 580.807H399.064L399.952 588.055L400.841 595.302H357.166L355.389 580.807ZM353.398 564.571H397.073L397.961 571.82L398.85 579.067H355.175L353.398 564.571ZM351.412 548.336H395.086L395.975 555.582L396.863 562.831H353.188L351.412 548.336Z" fill="white"/>
<path d="M364.427 628.21H371.63C372.969 628.21 373.923 627.126 373.759 625.788L372.877 618.592C372.713 617.254 371.494 616.169 370.155 616.169H362.952C361.613 616.169 360.659 617.254 360.823 618.592L361.705 625.788C361.869 627.126 363.088 628.21 364.427 628.21Z" fill="#24BBE3"/>
<path d="M366.036 641.352H373.239C374.578 641.352 375.532 640.268 375.368 638.93L374.486 631.734C374.322 630.396 373.103 629.312 371.764 629.312H364.561C363.222 629.312 362.268 630.396 362.432 631.734L363.314 638.93C363.478 640.268 364.697 641.352 366.036 641.352Z" fill="#24BBE3"/>
<path d="M367.651 654.497H374.856C376.195 654.497 377.149 653.412 376.985 652.074L376.103 644.876C375.939 643.538 374.72 642.454 373.381 642.454H366.179C364.839 642.454 363.886 643.538 364.05 644.876L364.931 652.074C365.093 653.41 366.312 654.497 367.651 654.497Z" fill="#24BBE3"/>
<path d="M369.255 667.639H376.458C377.797 667.639 378.751 666.555 378.587 665.217L377.705 658.02C377.541 656.683 376.322 655.598 374.983 655.598H367.78C366.441 655.598 365.487 656.683 365.651 658.02L366.533 665.217C366.697 666.555 367.914 667.639 369.255 667.639Z" fill="#24BBE3"/>
<path opacity="0.5" d="M366.036 641.352H373.239C374.578 641.352 375.532 640.268 375.368 638.93L374.486 631.734C374.322 630.396 373.103 629.312 371.764 629.312H364.561C363.222 629.312 362.268 630.396 362.432 631.734L363.314 638.93C363.478 640.268 364.697 641.352 366.036 641.352Z" fill="white"/>
<path opacity="0.5" d="M369.255 667.639H376.458C377.797 667.639 378.751 666.555 378.587 665.217L377.705 658.02C377.541 656.683 376.322 655.598 374.983 655.598H367.78C366.441 655.598 365.487 656.683 365.651 658.02L366.533 665.217C366.697 666.555 367.914 667.639 369.255 667.639Z" fill="white"/>
<path d="M400.881 277.963H429.295L424.794 267.277C423.38 263.922 426.365 260.649 430.839 260.649H458.684C463.158 260.649 466.716 263.922 465.891 267.277L463.261 277.963H491.675C500.258 277.963 507.824 284.914 508.575 293.49L510.76 318.443C511.194 323.385 507.533 327.39 502.588 327.39H398.628C393.681 327.39 389.32 323.383 388.887 318.443L386.701 293.49C385.95 284.914 392.298 277.963 400.881 277.963Z" fill="#24BBE3"/>
<path opacity="0.2" d="M463.265 277.962H429.298L426.648 271.673H464.812L463.265 277.962Z" fill="black"/>
<path d="M486.144 312.447C486.378 315.116 488.732 317.278 491.404 317.278C494.075 317.278 496.051 315.114 495.817 312.447C495.583 309.778 493.229 307.616 490.557 307.616C487.885 307.614 485.91 309.778 486.144 312.447Z" fill="#263238"/>
<path d="M402.769 312.447C403.003 315.116 405.357 317.278 408.029 317.278C410.7 317.278 412.676 315.114 412.442 312.447C412.208 309.778 409.854 307.616 407.182 307.616C404.513 307.614 402.535 309.778 402.769 312.447Z" fill="#263238"/>
<path d="M586.775 706.624L458.127 731.752C451.836 732.981 446.156 728.954 445.467 722.776L443.288 703.234C442.598 697.054 447.156 691.029 453.449 689.798L582.094 664.673C588.385 663.444 594.065 667.471 594.754 673.65L596.933 693.193C597.623 699.371 593.065 705.396 586.775 706.624ZM453.812 693.071C449.355 693.941 446.128 698.208 446.616 702.587L448.795 722.129C449.283 726.504 453.304 729.356 457.761 728.486L586.409 703.358C590.864 702.488 594.093 698.221 593.603 693.845L591.424 674.302C590.936 669.925 586.915 667.073 582.458 667.943L453.812 693.071Z" fill="#24BBE3"/>
<path d="M472.029 711.613L465.538 712.88L464.627 716.063L461.312 716.71L466.012 701.762L469.207 701.137L476.99 713.648L473.594 714.31L472.029 711.613ZM470.743 709.398L467.94 704.576L466.31 710.266L470.743 709.398Z" fill="#24BBE3"/>
<path d="M486.267 698.431C487.223 698.658 487.991 699.098 488.566 699.747C489.142 700.396 489.488 701.231 489.601 702.25C489.713 703.256 489.564 704.182 489.157 705.031C488.748 705.879 488.109 706.591 487.243 707.168C486.376 707.746 485.322 708.154 484.083 708.395L481.267 708.946L481.689 712.732L478.453 713.364L476.922 699.633L482.974 698.451C484.212 698.21 485.311 698.206 486.267 698.431ZM485.761 704.792C486.223 704.281 486.409 703.649 486.326 702.89C486.241 702.119 485.921 701.577 485.368 701.262C484.816 700.949 484.053 700.888 483.081 701.076L480.445 701.592L480.976 706.357L483.613 705.842C484.586 705.654 485.302 705.302 485.761 704.792Z" fill="#24BBE3"/>
<path d="M500.689 695.613C501.645 695.841 502.413 696.28 502.988 696.929C503.564 697.578 503.909 698.414 504.023 699.432C504.135 700.438 503.988 701.365 503.579 702.213C503.17 703.061 502.531 703.774 501.665 704.351C500.796 704.928 499.744 705.337 498.505 705.577L495.689 706.128L496.111 709.914L492.875 710.546L491.344 696.816L497.396 695.633C498.632 695.395 499.73 695.388 500.689 695.613ZM500.183 701.975C500.643 701.463 500.831 700.831 500.748 700.073C500.662 699.301 500.343 698.759 499.789 698.444C499.238 698.132 498.477 698.07 497.503 698.258L494.866 698.774L495.398 703.54L498.035 703.024C499.006 702.836 499.724 702.486 500.183 701.975Z" fill="#24BBE3"/>
<path d="M516.197 705.99L513.075 702.692L512.915 702.722L510.099 703.273L510.525 707.098L507.289 707.73L505.758 694L511.81 692.817C513.048 692.575 514.147 692.57 515.103 692.795C516.059 693.023 516.827 693.462 517.402 694.112C517.978 694.761 518.324 695.596 518.437 696.614C518.551 697.635 518.4 698.562 517.982 699.397C517.564 700.234 516.919 700.936 516.044 701.509L519.671 705.31L516.197 705.99ZM514.204 695.626C513.652 695.314 512.889 695.253 511.917 695.441L509.281 695.956L509.814 700.744L512.451 700.228C513.422 700.038 514.138 699.684 514.597 699.165C515.057 698.647 515.245 698.011 515.16 697.253C515.076 696.483 514.757 695.941 514.204 695.626Z" fill="#24BBE3"/>
<path d="M524.746 703.621C523.512 703.234 522.506 702.565 521.727 701.616C520.948 700.665 520.482 699.517 520.331 698.171C520.18 696.824 520.374 695.548 520.915 694.339C521.453 693.132 522.271 692.107 523.368 691.263C524.464 690.424 525.737 689.86 527.19 689.575C528.641 689.291 529.982 689.346 531.207 689.733C532.435 690.122 533.441 690.791 534.227 691.74C535.012 692.688 535.48 693.836 535.631 695.183C535.782 696.529 535.583 697.808 535.038 699.017C534.491 700.224 533.675 701.251 532.586 702.09C531.496 702.932 530.225 703.492 528.774 703.776C527.324 704.06 525.98 704.007 524.746 703.621ZM530.647 700.075C531.271 699.572 531.735 698.949 532.041 698.21C532.345 697.469 532.45 696.673 532.356 695.823C532.262 694.975 531.988 694.254 531.533 693.659C531.08 693.067 530.498 692.647 529.792 692.406C529.083 692.164 528.317 692.122 527.492 692.284C526.667 692.446 525.941 692.776 525.317 693.279C524.691 693.781 524.228 694.402 523.923 695.145C523.619 695.886 523.514 696.682 523.608 697.53C523.702 698.381 523.978 699.102 524.431 699.694C524.884 700.287 525.466 700.704 526.173 700.947C526.879 701.19 527.645 701.229 528.472 701.069C529.297 700.91 530.021 700.578 530.647 700.075Z" fill="#24BBE3"/>
<path d="M550.281 685.304L545.761 700.217L542.564 700.842L535 688.29L538.496 687.608L543.844 696.584L547.065 685.934L550.281 685.304Z" fill="#24BBE3"/>
<path d="M563.511 694.144L563.795 696.693L552.969 698.807L551.438 685.077L562.003 683.013L562.288 685.564L554.938 687L555.271 689.982L561.763 688.714L562.038 691.184L555.547 692.452L555.901 695.631L563.511 694.144Z" fill="#24BBE3"/>
<path d="M564.844 682.46L571.195 681.218C572.714 680.921 574.086 680.945 575.316 681.286C576.545 681.627 577.539 682.252 578.3 683.157C579.061 684.065 579.519 685.203 579.672 686.576C579.825 687.949 579.637 689.215 579.105 690.373C578.573 691.532 577.759 692.511 576.657 693.307C575.554 694.105 574.246 694.651 572.727 694.947L566.375 696.188L564.844 682.46ZM572.276 692.374C573.675 692.1 574.747 691.499 575.495 690.572C576.243 689.645 576.543 688.526 576.396 687.219C576.25 685.912 575.718 684.956 574.801 684.355C573.885 683.752 572.727 683.588 571.327 683.861L568.371 684.438L569.32 692.951L572.276 692.374Z" fill="#24BBE3"/>
</g>
<defs>
<clipPath id="clip0_2482_21836">
<rect width="817" height="841" fill="white" transform="translate(0.9375 0.641602)"/>
</clipPath>
</defs>
</svg>
