<svg width="94" height="95" viewBox="0 0 94 95" fill="none" xmlns="http://www.w3.org/2000/svg">
<path d="M38.4844 51.9581C38.4844 54.2976 40.3985 56.2116 42.7379 56.2116C45.0774 56.2116 46.9914 54.2974 46.9914 51.9581V28.5627" stroke="#18A3C8" stroke-width="2" stroke-miterlimit="22.926" stroke-linecap="round"/>
<path d="M46.9922 9.33652V6.15649" stroke="#18A3C8" stroke-width="2" stroke-miterlimit="22.926" stroke-linecap="round"/>
<path fill-rule="evenodd" clip-rule="evenodd" d="M72.2724 34.6214C71.2841 31.9866 68.7654 30.241 65.9512 30.241C63.1371 30.241 60.6184 31.9864 59.6301 34.6214C58.6418 31.9866 56.1229 30.241 53.309 30.241C50.495 30.241 47.9759 31.9864 46.9878 34.6214C45.9996 31.9866 43.4806 30.241 40.6665 30.241C37.8524 30.241 35.3337 31.9864 34.3454 34.6214C33.3573 31.9866 30.8384 30.241 28.0243 30.241C25.2101 30.241 22.6912 31.9864 21.7031 34.6214C21.7031 20.6571 33.0233 9.33667 46.9878 9.33667C60.9523 9.33667 72.2724 20.6571 72.2724 34.6214Z" fill="#24BBE3"/>
<path fill-rule="evenodd" clip-rule="evenodd" d="M70.1645 31.7174C68.9939 30.7825 67.5184 30.2409 65.9512 30.2409C63.1371 30.2409 60.6184 31.9863 59.6301 34.6213C58.6418 31.9865 56.1229 30.2409 53.309 30.2409C50.495 30.2409 47.9759 31.9863 46.9878 34.6213C45.9996 31.9865 43.4806 30.2409 40.6665 30.2409C37.8524 30.2409 35.3337 31.9863 34.3454 34.6213C33.3573 31.9865 30.8384 30.2409 28.0243 30.2409C25.2101 30.2409 22.6912 31.9863 21.7031 34.6213C21.7031 20.9823 32.5025 9.86751 46.0166 9.35693H46.0172C58.5581 9.83042 68.7599 19.4364 70.1643 31.7174H70.1645Z" fill="#59DCFF"/>
<path fill-rule="evenodd" clip-rule="evenodd" d="M14.3311 49.0031C15.2604 48.975 16.232 49.17 17.1685 49.6648L29.706 56.2885C31.9985 57.4996 34.2012 58.8729 34.9626 61.3512L37.3679 69.1806L38.045 71.3843L21.7988 80.7641L19.0228 75.956C12.9567 65.4491 3.62298 64.9411 3.23486 57.0656L1.67707 25.4477C1.45877 21.0174 8.19134 19.9797 9.10711 24.3088L12.8634 42.0655L14.3311 49.0031Z" fill="#9EEBFF"/>
<path d="M20.1406 81.7219L39.8286 70.3547L43.9846 77.5529L24.2966 88.9201L20.1406 81.7219Z" fill="#18A3C8"/>
<path d="M20.1406 81.7222L38.2387 71.2729L41.4767 76.8812L23.3787 87.3305L20.1406 81.7222Z" fill="#24BBE3"/>
<path fill-rule="evenodd" clip-rule="evenodd" d="M24.016 64.2882L27.9813 77.1945L21.7989 80.7639L19.023 75.9558C12.9569 65.4489 3.62316 64.9409 3.23504 57.0654L1.67707 25.4477C1.45877 21.0174 8.19134 19.9797 9.10711 24.3088L12.8634 42.0655L14.3311 49.0031C9.85892 49.994 7.17184 55.1195 11.8763 57.6867L21.7745 63.0886C22.3233 63.388 23.4933 64.1224 24.0158 64.2884L24.016 64.2882Z" fill="#62DFFF"/>
<path fill-rule="evenodd" clip-rule="evenodd" d="M79.6516 49.0032C78.7222 48.9751 77.7506 49.17 76.8141 49.6648L64.2767 56.2885C61.9842 57.4997 59.7814 58.873 59.02 61.3513L56.6146 69.1807L55.9375 71.3843L72.1837 80.7641L74.9596 75.956C81.0258 65.4491 90.3595 64.9411 90.7476 57.0657L92.3056 25.4479C92.5239 21.0176 85.7913 19.9799 84.8755 24.3091L81.1192 42.0657L79.6516 49.0033V49.0032Z" fill="#9EEBFF"/>
<path d="M50 77.5562L54.156 70.3579L73.844 81.7251L69.688 88.9234L50 77.5562Z" fill="#18A3C8"/>
<path fill-rule="evenodd" clip-rule="evenodd" d="M69.9653 64.2882L66 77.1945L72.1823 80.7639L74.9583 75.9558C81.0244 65.4489 90.3581 64.9409 90.7462 57.0654L92.3042 25.4477C92.5225 21.0174 85.7899 19.9797 84.8742 24.3088L81.1178 42.0655L79.6502 49.0031C84.1224 49.994 86.8094 55.1195 82.105 57.6867L72.2068 63.0886C71.658 63.388 70.488 64.1224 69.9653 64.2884V64.2882Z" fill="#62DFFF"/>
<path d="M52.5078 76.884L55.7459 71.2757L73.8439 81.725L70.6059 87.3333L52.5078 76.884Z" fill="#24BBE3"/>
</svg>
